 <svg viewBox="0 0 1320 500">
        <path
          fill-opacity="0.7"
          d="
        M0,192
        C220,100,440,100,660,192
        C880,290,1100,290,1320,192
        L1320 500
        L0 500
        "
          fill="#000"
        />
        <path
          fill-opacity="0.7"
          d="
        M0,192
        C220,100,440,100,660,192
        C880,290,1100,290,1320,192
        L1320 500
        L0 500
        "
          fill="#fff"
        />
        <path
          fill-opacity="0.7"
          d="
        M0,192
        C220,100,440,100,660,192
        C880,290,1100,290,1320,192
        L1320 500
        L0 500
        "
          fill="#ee5253"
        />
        <path
          fill-opacity="0.7"
          d="
        M0,192
        C220,100,440,100,660,192
        C880,290,1100,290,1320,192
        L1320 500
        L0 500
        "
          fill="#00d2d3"
        />
      </svg>